<svg id="_1-Email" data-name="1-Email" xmlns="http://www.w3.org/2000/svg" viewBox="0 0 100 100">
<title>1-Email</title>
<g style="stroke: none; stroke-width: 0; stroke-dasharray: none; stroke-linecap: butt; stroke-linejoin: miter; stroke-miterlimit: 10; fill: #03fcad; fill-rule: nonzero; opacity: 1;" transform="translate(1.4065934065934016 1.4065934065934016) scale(2.81 2.81)" >

<path d="M29,4H3A3,3,0,0,0,0,7V25a3,3,0,0,0,3,3H29a3,3,0,0,0,3-3V7A3,3,0,0,0,29,4Zm-.72,2L16,14.77,3.72,6ZM30,25a1,1,0,0,1-1,1H3a1,1,0,0,1-1-1V7.23l13.42,9.58a1,1,0,0,0,1.16,0L30,7.23Z"/>
</g>
</svg>